<svg width="761" height="701" xmlns="http://www.w3.org/2000/svg" xmlns:xlink="http://www.w3.org/1999/xlink" xml:space="preserve" overflow="hidden"><defs><filter id="fx0" x="-10%" y="-10%" width="120%" height="120%" filterUnits="userSpaceOnUse" primitiveUnits="userSpaceOnUse"><feComponentTransfer color-interpolation-filters="sRGB"><feFuncR type="discrete" tableValues="0.498039 0.498039"/><feFuncG type="discrete" tableValues="0.498039 0.498039"/><feFuncB type="discrete" tableValues="0.498039 0.498039"/><feFuncA type="linear" slope="1" intercept="0"/></feComponentTransfer><feGaussianBlur stdDeviation="1.52778 1.52778"/></filter></defs><g transform="translate(-1403 -146)"><g filter="url(#fx0)" transform="translate(1407 641)"><g><path d="M341.457 129.548C340.046 129.494 338.668 129.58 337.322 129.813 335.976 130.046 334.593 130.481 333.173 131.123 331.754 131.765 330.297 132.61 328.807 133.665 327.317 134.72 325.749 136.041 324.111 137.635 324.276 143.846 324.441 150.058 324.606 156.269 327.628 159.219 330.499 161.473 333.23 163.022 335.954 164.567 338.784 165.372 341.723 165.429 344.442 165.481 346.735 165.005 348.605 164.003 350.477 163.001 352.026 161.685 353.255 160.055 354.483 158.425 355.364 156.565 355.895 154.472 356.427 152.38 356.681 150.284 356.656 148.184 356.627 145.836 356.361 143.566 355.857 141.373 355.352 139.18 354.499 137.224 353.294 135.505 352.088 133.784 350.534 132.39 348.631 131.321 346.724 130.25 344.334 129.659 341.457 129.548ZM603.646 102.97C600.596 103.662 597.919 104.871 595.562 106.491 593.214 108.107 591.284 110.175 589.689 112.622 588.102 115.058 586.891 117.862 585.996 121.004 585.104 124.135 584.575 127.617 584.387 131.451 584.213 135.015 584.346 138.254 584.807 141.171 585.269 144.095 586.094 146.597 587.331 148.66 588.573 150.732 590.285 152.278 592.516 153.262 594.752 154.247 597.551 154.571 600.932 154.214 604.034 153.888 606.744 152.981 609.089 151.558 611.44 150.132 613.366 148.148 614.947 145.703 616.535 143.245 617.709 140.313 618.566 136.959 619.425 133.594 619.924 129.815 620.104 125.64 620.272 121.76 620.154 118.244 619.717 115.102 619.282 111.969 618.475 109.343 617.208 107.264 615.948 105.196 614.243 103.742 612.049 102.955 609.859 102.169 607.064 102.196 603.646 102.97ZM406 117.663C408.099 117.595 409.828 117.591 411.188 117.663 412.548 117.735 413.638 117.864 414.456 118.057 415.275 118.25 415.852 118.493 416.188 118.789 416.523 119.085 416.687 119.44 416.68 119.855 416.383 138.305 416.085 156.755 415.788 175.205 415.781 175.619 415.61 175.985 415.274 176.3 414.938 176.615 414.368 176.882 413.565 177.098 412.762 177.315 411.698 177.483 410.372 177.6 409.047 177.717 407.364 177.788 405.323 177.805 403.282 177.823 401.6 177.786 400.277 177.692 398.954 177.599 397.893 177.452 397.095 177.251 396.296 177.05 395.732 176.797 395.403 176.49 395.073 176.184 394.91 175.825 394.913 175.414 395.027 157.121 395.141 138.827 395.255 120.534 395.258 120.123 395.43 119.76 395.773 119.445 396.115 119.129 396.699 118.85 397.523 118.606 398.348 118.361 399.442 118.161 400.806 118.002 402.169 117.843 403.901 117.731 406 117.663ZM87.0961 67.1757C89.3699 67.9429 91.1598 68.6212 92.4869 69.1564 93.8131 69.6913 94.8484 70.2967 95.6115 70.9288 96.3736 71.5601 96.9423 72.3526 97.3483 73.2827 97.7537 74.2115 98.1545 75.4845 98.5858 77.0889 104.864 97.8639 111.009 118.131 117.603 137.716 117.685 137.728 117.765 137.742 117.847 137.754 122.314 119.952 126.539 102.556 131.035 85.6889 131.295 84.2333 131.659 83.3225 132.151 82.9687 132.642 82.6153 133.47 82.4897 134.644 82.5939 135.817 82.6981 137.878 83.195 140.855 84.0243 143.184 84.673 145.117 85.3459 146.675 85.9924 148.23 86.6382 149.378 87.3872 150.145 88.204 150.911 89.0194 151.311 89.9574 151.362 91.0061 151.412 92.0549 151.261 93.2342 150.89 94.5411 143.803 117.704 137.123 141.939 130.225 167.102 127.649 176.436 125.152 185.93 122.615 195.555 122.185 197.09 120.894 198.191 118.739 198.869 116.582 199.547 113.404 199.895 109.202 199.895 107.018 199.895 105.268 199.783 103.95 199.556 102.632 199.329 101.637 198.954 100.964 198.433 100.291 197.911 99.9149 197.257 99.8335 196.474 99.7521 195.692 99.8821 194.749 100.227 193.648 103.122 184.048 105.96 174.588 108.895 165.316 108.173 164.879 107.524 164.224 106.92 163.38 106.316 162.534 105.876 161.641 105.568 160.72 96.0122 133.208 87.1891 104.331 78.2894 74.3307 77.5208 71.7228 77.1449 69.7757 77.1095 68.5113 77.074 67.2468 77.3546 66.3568 77.9709 65.8676 78.5861 65.3792 79.63 65.2569 81.1281 65.5069 82.6258 65.7569 84.6087 66.3365 87.0961 67.1757ZM471.84 111.845C474.093 111.592 476.298 111.479 478.454 111.528 480.61 111.577 482.617 111.74 484.475 112.036 486.333 112.333 487.992 112.715 489.451 113.194 490.909 113.673 491.935 114.118 492.531 114.531 493.127 114.945 493.543 115.305 493.78 115.61 494.018 115.914 494.195 116.329 494.311 116.851 494.428 117.374 494.511 118.025 494.561 118.804 494.611 119.583 494.61 120.536 494.561 121.664 494.447 124.281 494.09 126.153 493.483 127.274 492.877 128.395 492.131 129.006 491.237 129.101 490.288 129.202 489.297 128.998 488.263 128.486 487.228 127.973 486.001 127.416 484.579 126.815 483.158 126.214 481.452 125.713 479.462 125.302 477.469 124.892 475.071 124.841 472.266 125.11 466.773 125.637 462.516 127.648 459.477 131.133 456.456 134.597 454.848 139.444 454.648 145.694 454.55 148.777 454.825 151.476 455.472 153.795 456.12 156.116 457.123 158.038 458.484 159.563 459.846 161.088 461.577 162.203 463.681 162.909 465.782 163.614 468.242 163.899 471.062 163.768 473.938 163.635 476.424 163.161 478.526 162.371 480.63 161.581 482.466 160.704 484.05 159.772 485.637 158.838 486.964 157.978 488.046 157.219 489.13 156.46 490.027 156.047 490.747 155.999 491.245 155.966 491.655 156.049 491.977 156.252 492.3 156.454 492.544 156.853 492.712 157.449 492.879 158.045 492.996 158.813 493.066 159.754 493.136 160.694 493.137 161.91 493.072 163.399 493.021 164.573 492.937 165.557 492.819 166.351 492.702 167.145 492.563 167.817 492.401 168.365 492.24 168.913 492.056 169.361 491.848 169.708 491.64 170.055 491.196 170.505 490.512 171.051 489.827 171.596 488.675 172.28 487.045 173.081 485.416 173.88 483.576 174.616 481.515 175.262 479.455 175.909 477.223 176.455 474.815 176.88 472.407 177.304 469.938 177.559 467.407 177.629 461.739 177.786 456.738 177.23 452.402 175.975 448.063 174.719 444.44 172.811 441.526 170.251 438.614 167.692 436.439 164.551 435.003 160.817 433.569 157.089 432.903 152.797 433.017 147.932 433.149 142.312 434.2 137.409 436.182 133.215 438.171 129.004 440.89 125.433 444.344 122.489 447.816 119.528 451.878 117.174 456.543 115.426 461.224 113.671 466.32 112.464 471.84 111.845ZM605.161 85.9557C611.667 84.2091 617.241 83.5044 621.903 84.0596 626.559 84.614 630.346 86.3809 633.295 89.3062 636.266 92.253 638.306 96.4347 639.613 101.703 640.93 107.011 641.401 113.377 641.119 120.746 640.849 127.807 639.831 134.392 637.949 140.431 636.081 146.427 633.496 151.737 629.97 156.198 626.475 160.619 622.229 164.2 617.107 166.746 612.003 169.285 606.104 170.795 599.403 171.237 592.913 171.664 587.318 171.122 582.596 169.677 577.881 168.233 574.041 165.964 571.014 162.917 568.006 159.889 565.872 156.069 564.561 151.461 563.257 146.881 562.771 141.561 563.078 135.486 563.373 129.617 564.47 124.107 566.401 118.941 568.345 113.741 571.042 109.015 574.572 104.788 578.129 100.529 582.397 96.7525 587.5 93.5569 592.622 90.3499 598.471 87.7516 605.161 85.9557ZM548.397 99.5413C549.116 99.3954 549.887 99.2687 550.712 99.1728 551.538 99.0769 552.388 99.019 553.263 99.01 554.139 99.001 554.903 99.0362 555.554 99.1232 556.206 99.2103 556.677 99.3472 556.968 99.5354 557.26 99.7235 557.466 99.9559 557.589 100.23 557.712 100.505 557.814 100.898 557.899 101.407 557.983 101.916 558.024 102.698 558.026 103.753 558.027 104.807 557.981 106.248 557.889 108.075 557.796 109.903 557.666 111.411 557.496 112.598 557.326 113.785 557.117 114.729 556.861 115.427 556.606 116.125 556.296 116.635 555.923 116.949 555.551 117.263 555.091 117.473 554.539 117.566 554.098 117.641 553.606 117.641 553.064 117.56 552.522 117.479 551.911 117.399 551.232 117.316 550.552 117.234 549.803 117.178 548.985 117.144 548.167 117.11 547.262 117.183 546.268 117.347 545.11 117.539 543.945 117.952 542.762 118.555 541.578 119.158 540.35 120.014 539.055 121.085 537.762 122.153 536.417 123.532 534.98 125.182 533.548 126.826 532.026 128.83 530.361 131.149 529.7 144.518 529.039 157.887 528.378 171.257 528.354 171.738 528.17 172.168 527.822 172.545 527.474 172.922 526.899 173.254 526.091 173.532 525.284 173.809 524.22 174.046 522.897 174.226 521.573 174.406 519.896 174.552 517.865 174.643 515.834 174.735 514.163 174.757 512.851 174.699 511.539 174.64 510.491 174.515 509.706 174.318 508.92 174.121 508.371 173.857 508.057 173.526 507.743 173.194 507.597 172.796 507.619 172.333 508.583 151.691 509.547 131.049 510.511 110.408 510.533 109.945 510.691 109.517 510.988 109.127 511.284 108.736 511.8 108.365 512.538 108.019 513.275 107.673 514.215 107.343 515.363 107.042 516.513 106.741 517.949 106.437 519.678 106.148 521.463 105.85 522.936 105.647 524.101 105.564 525.266 105.481 526.163 105.496 526.792 105.622 527.421 105.747 527.865 105.964 528.126 106.273 528.387 106.581 528.504 106.976 528.48 107.454 528.35 110.108 528.219 112.761 528.089 115.415 530.162 112.716 532.069 110.407 533.87 108.543 535.679 106.672 537.365 105.107 538.967 103.892 540.574 102.675 542.154 101.71 543.726 101.037 545.296 100.366 546.849 99.8555 548.397 99.5413ZM205.467 98.6475C208.507 99.2798 211.251 100.145 213.719 101.188 216.188 102.232 218.399 103.476 220.377 104.876 222.348 106.271 224.051 107.827 225.522 109.511 226.987 111.19 228.222 113.002 229.264 114.925 231.378 113.231 233.469 111.823 235.54 110.709 237.608 109.596 239.665 108.756 241.709 108.185 243.753 107.614 245.811 107.282 247.887 107.173 249.964 107.064 252.093 107.189 254.277 107.518 259.257 108.267 263.485 109.562 266.98 111.362 270.461 113.156 273.294 115.323 275.506 117.85 277.707 120.367 279.316 123.192 280.344 126.324 281.368 129.448 281.947 132.699 282.088 136.083 282.608 148.63 283.129 161.177 283.65 173.724 283.668 174.164 283.519 174.542 283.202 174.861 282.885 175.179 282.346 175.434 281.585 175.629 280.823 175.824 279.784 175.952 278.469 176.018 277.154 176.085 275.479 176.078 273.444 176.008 271.354 175.935 269.647 175.811 268.321 175.651 266.996 175.49 265.93 175.276 265.122 175.02 264.313 174.764 263.751 174.456 263.432 174.105 263.113 173.753 262.944 173.349 262.923 172.895 262.361 160.903 261.8 148.911 261.238 136.919 261.143 134.879 260.822 132.994 260.268 131.265 259.714 129.532 258.928 128.003 257.894 126.684 256.857 125.363 255.593 124.268 254.083 123.421 252.57 122.573 250.789 121.996 248.726 121.724 246.217 121.393 243.73 121.85 241.258 123.135 238.783 124.42 236.131 126.452 233.302 129.233 234.025 143.341 234.749 157.45 235.472 171.559 235.497 172.034 235.354 172.443 235.042 172.782 234.731 173.122 234.184 173.391 233.4 173.591 232.618 173.79 231.571 173.915 230.262 173.971 228.952 174.027 227.31 173.999 225.337 173.901 223.308 173.801 221.633 173.645 220.31 173.455 218.987 173.265 217.924 173.017 217.116 172.729 216.308 172.441 215.733 172.096 215.383 171.707 215.034 171.317 214.848 170.873 214.822 170.377 214.131 157.266 213.44 144.156 212.749 131.045 212.632 128.814 212.295 126.746 211.726 124.84 211.156 122.931 210.38 121.235 209.368 119.765 208.353 118.291 207.098 117.047 205.567 116.067 204.033 115.084 202.284 114.39 200.297 114.034 197.767 113.58 195.291 113.998 192.859 115.33 190.421 116.665 187.852 118.843 185.124 121.836 185.937 137.421 186.751 153.007 187.564 168.592 187.591 169.118 187.453 169.568 187.144 169.939 186.836 170.311 186.295 170.605 185.516 170.817 184.738 171.028 183.697 171.158 182.393 171.207 181.09 171.257 179.427 171.21 177.406 171.08 175.385 170.951 173.717 170.763 172.4 170.542 171.083 170.321 170.025 170.036 169.219 169.71 168.413 169.384 167.84 168.994 167.491 168.559 167.14 168.124 166.955 167.628 166.928 167.077 165.7 142.498 164.472 117.919 163.244 93.3401 163.217 92.7891 163.327 92.3396 163.58 91.9968 163.833 91.6542 164.304 91.4325 164.998 91.3381 165.691 91.2436 166.592 91.2712 167.701 91.4133 168.811 91.5554 170.214 91.8501 171.912 92.2638 173.664 92.6907 175.114 93.1229 176.272 93.5298 177.429 93.9364 178.324 94.3568 178.97 94.7686 179.614 95.18 180.079 95.6223 180.375 96.0822 180.671 96.5418 180.83 97.038 180.858 97.5672 180.999 100.293 181.14 103.018 181.282 105.744 185.116 102.399 189 100.137 192.936 98.9662 196.869 97.7965 201.041 97.7271 205.467 98.6475ZM723.145 21.0391C725.03 20.1518 726.588 19.4872 727.833 19.0842 729.078 18.6812 730.054 18.5175 730.763 18.5998 731.472 18.6822 731.974 18.9682 732.279 19.4442 732.583 19.9209 732.728 20.5539 732.723 21.336 732.674 29.1182 732.625 36.9003 732.576 44.6824 737.574 42.6823 742.498 40.549 747.462 38.4872 747.975 38.2744 748.417 38.2891 748.803 38.5296 749.19 38.7703 749.5 39.3169 749.763 40.1481 750.026 40.9805 750.21 42.1931 750.344 43.7788 750.477 45.3657 750.541 47.3489 750.544 49.7266 750.55 54.2362 750.314 57.5541 749.784 59.6638 749.256 61.7687 748.526 63.0078 747.542 63.3479 742.5 65.0921 737.495 66.9242 732.425 68.6154 732.321 85.0008 732.218 101.386 732.115 117.772 732.079 123.481 732.634 127.664 733.868 130.294 735.108 132.939 737.247 134.02 740.382 133.506 741.445 133.332 742.396 133.017 743.25 132.601 744.105 132.185 744.851 131.712 745.521 131.243 746.192 130.772 746.737 130.334 747.193 129.976 747.649 129.619 748.055 129.394 748.426 129.33 748.745 129.274 749.046 129.366 749.342 129.595 749.637 129.825 749.855 130.363 750.02 131.194 750.185 132.025 750.324 133.169 750.463 134.621 750.602 136.074 750.667 137.95 750.67 140.246 750.675 143.853 750.54 146.641 750.24 148.604 749.941 150.564 749.571 151.968 749.08 152.796 748.591 153.623 747.898 154.414 746.951 155.118 746.006 155.821 744.919 156.489 743.652 157.057 742.387 157.624 741.024 158.127 739.546 158.511 738.068 158.895 736.58 159.176 735.076 159.326 731.043 159.728 727.567 159.323 724.613 158.194 721.668 157.069 719.287 155.079 717.355 152.344 715.437 149.63 714.112 146.071 713.24 141.725 712.372 137.4 712.016 132.191 712.103 126.097 712.345 109.116 712.588 92.1341 712.831 75.1525 710.033 76.0404 707.252 76.9771 704.436 77.8509 703.437 78.161 702.706 77.5542 702.2 76.0272 701.694 74.5043 701.498 71.7548 701.572 67.7876 701.611 65.6958 701.707 63.9051 701.867 62.4156 702.028 60.9251 702.236 59.7143 702.518 58.7888 702.799 57.8622 703.126 57.1379 703.528 56.6329 703.931 56.1274 704.384 55.7661 704.906 55.5719 707.677 54.5425 710.407 53.4564 713.156 52.4113 713.262 45.0167 713.368 37.6221 713.473 30.2275 713.484 29.4843 713.631 28.7501 713.925 28.0281 714.22 27.3053 714.732 26.5616 715.485 25.8123 716.239 25.062 717.235 24.2868 718.496 23.5165 719.759 22.7454 721.303 21.9055 723.145 21.0391ZM41.8574 11.3533C44.2049 12.5289 46.5471 13.9692 48.912 15.6297 51.2842 17.2955 53.5018 19.0673 55.5889 20.9088 57.6689 22.744 59.5063 24.5766 61.1396 26.3726 62.7672 28.1623 63.837 29.5301 64.3765 30.4664 64.9155 31.4019 65.2779 32.1576 65.4733 32.7299 65.6685 33.3018 65.8381 34.0207 65.9891 34.885 66.14 35.7488 66.2544 36.8061 66.337 38.0565 66.4196 39.3065 66.4824 40.8435 66.527 42.6677 66.5767 44.7023 66.5806 46.4054 66.5354 47.7774 66.4901 49.15 66.3913 50.2574 66.2276 51.0983 66.0638 51.9399 65.8231 52.5095 65.4908 52.7978 65.1582 53.0864 64.7085 53.1213 64.1342 52.9036 63.5609 52.6863 62.6522 51.8251 61.3704 50.3535 60.0849 48.8776 58.5567 47.1494 56.7023 45.2403 54.8409 43.324 52.7473 41.3314 50.3336 39.3517 47.9238 37.3752 45.3428 35.7179 42.5083 34.495 40.2896 33.5378 38.3714 33.0676 36.7348 33.1361 35.101 33.2043 33.7576 33.7281 32.663 34.6513 31.5644 35.578 30.7882 36.9579 30.2583 38.731 29.7268 40.5093 29.4903 42.5285 29.5117 44.7733 29.5434 48.1017 30.1438 51.2359 31.4121 54.1201 32.6745 56.9909 34.2592 59.7841 36.3673 62.3607 38.4715 64.9325 40.7604 67.5464 43.4298 70.0064 46.0867 72.4548 48.7066 75.0854 51.5014 77.6747 54.2903 80.2585 56.9362 83.1275 59.6612 86.0615 62.3699 88.9781 64.6933 92.2882 66.8775 95.8196 69.0486 99.3298 70.7414 103.277 72.1558 107.574 73.5624 111.847 74.2994 116.681 74.4424 122.069 74.6294 129.116 73.8102 135.145 71.8757 140.154 69.9222 145.213 67.3307 149.396 63.9007 152.585 60.4364 155.806 56.4509 158.212 51.7982 159.616 47.1352 161.024 42.156 161.541 36.8238 161.029 33.2205 160.684 29.8758 159.903 26.7723 158.746 23.6653 157.587 20.9575 156.198 18.5817 154.721 16.2004 153.24 14.2639 151.652 12.6661 150.1 11.0633 148.544 9.96084 147.143 9.2531 145.997 8.54381 144.849 8.07147 143.234 7.77006 141.185 7.54374 139.647 7.41416 137.621 7.35764 135.113 7.34822 134.223 7.33963 133.333 7.33023 132.443 7.33023 132.443 7.33023 132.442 7.33023 132.442 7.34391 131.275 7.35636 130.108 7.37002 128.942 7.39736 127.88 7.43458 126.923 7.48921 126.072 7.59839 124.37 7.75938 123.007 8.00471 121.991 8.24971 120.975 8.553 120.273 8.95537 119.911 9.35729 119.549 9.81293 119.415 10.3419 119.521 11.0824 119.668 12.0987 120.577 13.4775 122.157 14.8519 123.732 16.5332 125.587 18.6937 127.541 20.846 129.487 23.3391 131.45 26.3291 133.207 29.3111 134.958 32.7199 136.2 36.6108 136.809 39.1752 137.21 41.4599 137.137 43.4807 136.616 45.4986 136.096 47.1765 135.138 48.5851 133.842 49.9876 132.551 50.9957 130.802 51.7209 128.669 52.4433 126.544 52.7531 124.088 52.7016 121.311 52.6421 118.096 51.9792 115.186 50.6389 112.608 49.2935 110.021 47.6711 107.523 45.5808 105.242 43.4807 102.95 41.2157 100.573 38.585 98.3108 35.9444 96.0401 33.3514 93.5004 30.5779 90.9294 27.7906 88.3456 25.2201 85.3603 22.6064 82.2233 19.9823 79.0741 17.8042 75.3735 15.7529 71.3387 13.687 67.2753 12.1587 62.6051 10.8827 57.4541 9.59962 52.2743 9.02183 46.3478 9.01711 39.7304 9.0117 32.1327 9.84822 25.8449 11.6258 20.9423 13.3866 16.0859 15.6634 12.4845 18.6269 10.2882 21.563 8.11225 25.0322 7.15241 29.0427 7.44375 33.0484 7.73475 37.3062 9.07424 41.8574 11.3533ZM406.358 93.4045C411.178 93.2024 414.439 93.6046 416.141 94.6903 417.841 95.7745 418.665 97.8292 418.614 100.859 418.561 104.012 417.642 106.24 415.854 107.53 414.07 108.818 410.787 109.577 406.003 109.746 401.163 109.917 397.903 109.416 396.23 108.304 394.554 107.191 393.724 105.132 393.74 102.132 393.758 99.0092 394.645 96.823 396.401 95.5655 398.161 94.3051 401.482 93.609 406.358 93.4045ZM312.016 88.3719C314.133 88.5937 315.879 88.83 317.256 89.0889 318.632 89.3477 319.738 89.6287 320.574 89.9352 321.41 90.2415 322.003 90.5771 322.356 90.9429 322.708 91.3085 322.889 91.7012 322.9 92.1209 323.176 102.466 323.451 112.811 323.726 123.156 325.608 121.847 327.502 120.751 329.4 119.86 331.3 118.967 333.207 118.253 335.118 117.71 337.03 117.165 339.004 116.8 341.04 116.603 343.078 116.407 345.232 116.357 347.503 116.444 353.121 116.66 357.897 117.603 361.834 119.31 365.759 121.011 368.964 123.235 371.442 126.01 373.913 128.777 375.719 131.995 376.854 135.671 377.99 139.345 378.557 143.213 378.563 147.275 378.572 152.157 377.852 156.546 376.416 160.443 374.98 164.337 372.913 167.655 370.213 170.397 367.518 173.134 364.206 175.233 360.273 176.689 356.345 178.143 351.875 178.849 346.858 178.798 344.377 178.773 342.058 178.567 339.901 178.187 337.743 177.807 335.678 177.202 333.702 176.379 331.723 175.556 329.768 174.514 327.833 173.263 325.893 172.009 323.908 170.49 321.869 168.716 321.926 170.756 321.983 172.797 322.04 174.838 322.053 175.301 321.912 175.687 321.617 175.996 321.323 176.305 320.834 176.558 320.151 176.755 319.468 176.951 318.549 177.079 317.394 177.139 316.239 177.2 314.835 177.21 313.182 177.174 311.473 177.136 310.053 177.058 308.921 176.946 307.788 176.835 306.875 176.661 306.179 176.43 305.482 176.2 304.992 175.918 304.705 175.59 304.418 175.262 304.267 174.861 304.25 174.39 303.272 146.231 302.294 118.071 301.316 89.9114 301.302 89.4831 301.459 89.1179 301.789 88.8164 302.12 88.5148 302.694 88.2956 303.513 88.1579 304.332 88.0202 305.424 87.9665 306.789 87.9934 308.157 88.0203 309.899 88.15 312.016 88.3719ZM688.545 16.1691C690.565 15.1871 692.474 14.4711 694.275 14.0383 696.061 13.6091 697.462 13.4095 698.478 13.4344 699.494 13.4594 700.177 13.6194 700.528 13.9071 700.879 14.1951 701.16 14.7328 701.375 15.5175 701.589 16.3032 701.733 17.3736 701.81 18.7276 701.887 20.0824 701.905 21.8045 701.865 23.8934 701.826 25.9822 701.743 27.6805 701.615 28.9874 701.487 30.2937 701.317 31.3353 701.094 32.1099 700.872 32.8837 700.635 33.4555 700.369 33.8187 700.104 34.1817 699.819 34.4343 699.509 34.5685 699.146 34.7251 698.748 34.7743 698.314 34.7176 697.879 34.6609 697.342 34.6274 696.701 34.6262 696.061 34.625 695.304 34.6899 694.431 34.825 693.557 34.9603 692.52 35.2953 691.32 35.8088 689.911 36.4113 688.702 37.2381 687.665 38.2551 686.63 39.2702 685.773 40.5676 685.055 42.1222 684.338 43.6727 683.812 45.5289 683.442 47.6805 683.072 49.8288 682.855 52.3777 682.779 55.3274 682.706 58.1398 682.634 60.9523 682.561 63.7647 686.849 62.2724 691.107 60.6757 695.375 59.1326 695.845 58.9626 696.268 58.9833 696.654 59.1906 697.04 59.398 697.345 59.8731 697.595 60.5962 697.845 61.3202 698.009 62.3767 698.114 63.7587 698.219 65.1418 698.246 66.8707 698.205 68.9442 698.126 72.8766 697.822 75.7721 697.249 77.6138 696.678 79.4512 695.914 80.5354 694.914 80.8374 690.618 82.1358 686.332 83.4998 682.019 84.7553 681.379 109.519 680.74 134.282 680.1 159.045 680.082 159.731 679.909 160.351 679.568 160.894 679.226 161.437 678.683 161.926 677.915 162.333 677.147 162.74 676.091 163.105 674.733 163.393 673.375 163.682 671.724 163.927 669.776 164.099 667.828 164.27 666.194 164.339 664.874 164.292 663.553 164.246 662.508 164.091 661.732 163.838 660.958 163.585 660.433 163.221 660.148 162.762 659.863 162.303 659.736 161.745 659.757 161.093 660.521 137.571 661.285 114.049 662.049 90.5276 659.056 91.3467 656.077 92.2072 653.083 93.0031 652.068 93.2729 651.346 92.7352 650.881 91.3887 650.418 90.0454 650.264 87.6323 650.389 84.1567 650.456 82.3241 650.575 80.7554 650.756 79.4509 650.938 78.1456 651.153 77.0897 651.422 76.288 651.692 75.4856 652.022 74.8565 652.435 74.4155 652.849 73.9741 653.315 73.6592 653.847 73.4904 656.803 72.5526 659.743 71.5546 662.697 70.5893 662.776 68.1459 662.855 65.7025 662.935 63.2591 663.127 57.3297 663.768 51.9503 664.867 47.1071 665.97 42.2456 667.553 37.8835 669.662 34.0213 671.786 30.1315 674.408 26.6984 677.551 23.7164 680.706 20.7224 684.357 18.2046 688.545 16.1691Z" stroke="#000000" stroke-width="3" stroke-linejoin="round" stroke-miterlimit="10" fill="#FFFFFF" fill-rule="evenodd"/></g></g><path d="M1738.73 760.826C1737.32 760.771 1735.95 760.857 1734.6 761.09 1733.25 761.323 1731.87 761.758 1730.45 762.4 1729.03 763.042 1727.57 763.888 1726.08 764.943 1724.59 765.997 1723.03 767.318 1721.39 768.912 1721.55 775.124 1721.72 781.335 1721.88 787.546 1724.91 790.496 1727.78 792.75 1730.51 794.3 1733.23 795.845 1736.06 796.65 1739 796.706 1741.72 796.758 1744.01 796.282 1745.88 795.28 1747.75 794.278 1749.3 792.962 1750.53 791.333 1751.76 789.702 1752.64 787.842 1753.17 785.75 1753.7 783.658 1753.96 781.562 1753.93 779.461 1753.9 777.113 1753.64 774.843 1753.13 772.651 1752.63 770.457 1751.78 768.501 1750.57 766.783 1749.37 765.062 1747.81 763.667 1745.91 762.598 1744 761.527 1741.61 760.937 1738.73 760.826ZM2000.92 734.248C1997.87 734.939 1995.2 736.148 1992.84 737.769 1990.49 739.384 1988.56 741.452 1986.97 743.9 1985.38 746.336 1984.17 749.14 1983.27 752.281 1982.38 755.413 1981.85 758.895 1981.66 762.729 1981.49 766.292 1981.62 769.531 1982.08 772.448 1982.55 775.372 1983.37 777.874 1984.61 779.937 1985.85 782.009 1987.56 783.556 1989.79 784.539 1992.03 785.524 1994.83 785.848 1998.21 785.492 2001.31 785.165 2004.02 784.259 2006.37 782.836 2008.72 781.409 2010.64 779.426 2012.22 776.98 2013.81 774.522 2014.99 771.59 2015.84 768.236 2016.7 764.871 2017.2 761.092 2017.38 756.918 2017.55 753.037 2017.43 749.521 2016.99 746.38 2016.56 743.247 2015.75 740.62 2014.49 738.541 2013.23 736.473 2011.52 735.02 2009.33 734.232 2007.14 733.446 2004.34 733.473 2000.92 734.248ZM1803.28 748.94C1805.38 748.873 1807.11 748.869 1808.47 748.94 1809.83 749.012 1810.91 749.141 1811.73 749.334 1812.55 749.528 1813.13 749.771 1813.46 750.067 1813.8 750.363 1813.96 750.718 1813.96 751.132 1813.66 769.582 1813.36 788.032 1813.07 806.482 1813.06 806.897 1812.89 807.262 1812.55 807.577 1812.21 807.892 1811.65 808.159 1810.84 808.375 1810.04 808.592 1808.97 808.76 1807.65 808.878 1806.32 808.995 1804.64 809.065 1802.6 809.083 1800.56 809.1 1798.88 809.063 1797.55 808.969 1796.23 808.876 1795.17 808.729 1794.37 808.528 1793.57 808.328 1793.01 808.074 1792.68 807.768 1792.35 807.461 1792.19 807.103 1792.19 806.692 1792.3 788.398 1792.42 770.104 1792.53 751.811 1792.54 751.4 1792.71 751.037 1793.05 750.722 1793.39 750.407 1793.98 750.127 1794.8 749.883 1795.63 749.639 1796.72 749.438 1798.08 749.279 1799.45 749.12 1801.18 749.008 1803.28 748.94ZM1484.37 698.453C1486.65 699.22 1488.44 699.898 1489.76 700.434 1491.09 700.969 1492.13 701.574 1492.89 702.206 1493.65 702.837 1494.22 703.63 1494.63 704.56 1495.03 705.489 1495.43 706.762 1495.86 708.366 1502.14 729.141 1508.29 749.408 1514.88 768.993 1514.96 769.005 1515.04 769.019 1515.12 769.031 1519.59 751.229 1523.82 733.833 1528.31 716.966 1528.57 715.511 1528.94 714.6 1529.43 714.246 1529.92 713.893 1530.75 713.767 1531.92 713.871 1533.09 713.975 1535.15 714.472 1538.13 715.302 1540.46 715.95 1542.39 716.623 1543.95 717.27 1545.51 717.915 1546.66 718.664 1547.42 719.481 1548.19 720.297 1548.59 721.235 1548.64 722.283 1548.69 723.332 1548.54 724.511 1548.17 725.818 1541.08 748.981 1534.4 773.216 1527.5 798.38 1524.93 807.713 1522.43 817.208 1519.89 826.833 1519.46 828.368 1518.17 829.469 1516.02 830.146 1513.86 830.825 1510.68 831.172 1506.48 831.172 1504.3 831.172 1502.55 831.06 1501.23 830.833 1499.91 830.607 1498.91 830.232 1498.24 829.71 1497.57 829.188 1497.19 828.534 1497.11 827.752 1497.03 826.969 1497.16 826.026 1497.5 824.925 1500.4 815.325 1503.24 805.866 1506.17 796.593 1505.45 796.156 1504.8 795.502 1504.2 794.657 1503.59 793.811 1503.15 792.918 1502.85 791.997 1493.29 764.485 1484.47 735.608 1475.57 705.608 1474.8 703 1474.42 701.053 1474.39 699.789 1474.35 698.524 1474.63 697.634 1475.25 697.145 1475.86 696.656 1476.91 696.534 1478.41 696.784 1479.9 697.034 1481.89 697.614 1484.37 698.453ZM1869.12 743.122C1871.37 742.87 1873.58 742.756 1875.73 742.805 1877.89 742.854 1879.89 743.017 1881.75 743.314 1883.61 743.61 1885.27 743.993 1886.73 744.471 1888.19 744.95 1889.21 745.395 1889.81 745.809 1890.4 746.222 1890.82 746.582 1891.06 746.887 1891.3 747.192 1891.47 747.606 1891.59 748.129 1891.71 748.652 1891.79 749.302 1891.84 750.081 1891.89 750.86 1891.89 751.813 1891.84 752.941 1891.72 755.558 1891.37 757.43 1890.76 758.552 1890.15 759.672 1889.41 760.284 1888.51 760.379 1887.57 760.479 1886.57 760.275 1885.54 759.763 1884.51 759.251 1883.28 758.693 1881.86 758.092 1880.43 757.491 1878.73 756.99 1876.74 756.58 1874.75 756.169 1872.35 756.118 1869.54 756.387 1864.05 756.914 1859.79 758.925 1856.75 762.41 1853.73 765.875 1852.13 770.721 1851.93 776.972 1851.83 780.054 1852.1 782.753 1852.75 785.072 1853.4 787.393 1854.4 789.315 1855.76 790.84 1857.12 792.366 1858.85 793.48 1860.96 794.186 1863.06 794.891 1865.52 795.176 1868.34 795.046 1871.22 794.912 1873.7 794.438 1875.8 793.649 1877.91 792.859 1879.74 791.981 1881.33 791.049 1882.91 790.115 1884.24 789.255 1885.32 788.497 1886.41 787.737 1887.3 787.324 1888.02 787.277 1888.52 787.244 1888.93 787.327 1889.25 787.529 1889.58 787.731 1889.82 788.131 1889.99 788.726 1890.16 789.322 1890.27 790.09 1890.34 791.031 1890.41 791.972 1890.41 793.187 1890.35 794.677 1890.3 795.85 1890.21 796.834 1890.1 797.629 1889.98 798.423 1889.84 799.094 1889.68 799.642 1889.52 800.19 1889.33 800.638 1889.13 800.985 1888.92 801.332 1888.47 801.782 1887.79 802.328 1887.1 802.873 1885.95 803.557 1884.32 804.358 1882.69 805.158 1880.85 805.893 1878.79 806.54 1876.73 807.186 1874.5 807.732 1872.09 808.157 1869.68 808.582 1867.22 808.836 1864.68 808.906 1859.02 809.063 1854.02 808.508 1849.68 807.252 1845.34 805.996 1841.72 804.088 1838.8 801.528 1835.89 798.97 1833.72 795.829 1832.28 792.095 1830.85 788.366 1830.18 784.074 1830.29 779.209 1830.43 773.589 1831.48 768.686 1833.46 764.492 1835.45 760.282 1838.17 756.711 1841.62 753.766 1845.09 750.805 1849.16 748.451 1853.82 746.703 1858.5 744.948 1863.6 743.741 1869.12 743.122ZM2002.44 717.233C2008.94 715.486 2014.52 714.782 2019.18 715.337 2023.84 715.891 2027.62 717.658 2030.57 720.583 2033.54 723.53 2035.58 727.712 2036.89 732.981 2038.21 738.288 2038.68 744.654 2038.4 752.024 2038.13 759.084 2037.11 765.669 2035.23 771.708 2033.36 777.705 2030.77 783.014 2027.25 787.475 2023.75 791.896 2019.51 795.477 2014.38 798.024 2009.28 800.562 2003.38 802.072 1996.68 802.514 1990.19 802.941 1984.6 802.399 1979.87 800.954 1975.16 799.511 1971.32 797.241 1968.29 794.194 1965.28 791.166 1963.15 787.346 1961.84 782.738 1960.53 778.158 1960.05 772.839 1960.35 766.763 1960.65 760.894 1961.75 755.384 1963.68 750.219 1965.62 745.018 1968.32 740.293 1971.85 736.065 1975.41 731.806 1979.67 728.03 1984.78 724.834 1989.9 721.627 1995.75 719.029 2002.44 717.233ZM1945.67 730.819C1946.39 730.673 1947.16 730.546 1947.99 730.45 1948.82 730.354 1949.67 730.296 1950.54 730.287 1951.42 730.278 1952.18 730.313 1952.83 730.401 1953.48 730.488 1953.95 730.625 1954.25 730.813 1954.54 731.001 1954.74 731.233 1954.87 731.508 1954.99 731.782 1955.09 732.175 1955.18 732.684 1955.26 733.194 1955.3 733.976 1955.3 735.03 1955.3 736.084 1955.26 737.526 1955.17 739.353 1955.07 741.18 1954.94 742.688 1954.77 743.875 1954.6 745.063 1954.39 746.006 1954.14 746.705 1953.88 747.402 1953.57 747.912 1953.2 748.226 1952.83 748.54 1952.37 748.75 1951.82 748.844 1951.38 748.919 1950.88 748.918 1950.34 748.837 1949.8 748.756 1949.19 748.676 1948.51 748.593 1947.83 748.511 1947.08 748.456 1946.26 748.421 1945.44 748.387 1944.54 748.46 1943.55 748.624 1942.39 748.816 1941.22 749.23 1940.04 749.832 1938.86 750.436 1937.63 751.292 1936.33 752.362 1935.04 753.43 1933.69 754.809 1932.26 756.459 1930.83 758.103 1929.3 760.108 1927.64 762.426 1926.98 775.795 1926.32 789.165 1925.66 802.534 1925.63 803.015 1925.45 803.446 1925.1 803.822 1924.75 804.199 1924.18 804.532 1923.37 804.809 1922.56 805.086 1921.5 805.323 1920.17 805.503 1918.85 805.684 1917.17 805.829 1915.14 805.921 1913.11 806.012 1911.44 806.035 1910.13 805.976 1908.82 805.917 1907.77 805.792 1906.98 805.595 1906.2 805.399 1905.65 805.135 1905.33 804.803 1905.02 804.471 1904.87 804.074 1904.9 803.611 1905.86 782.969 1906.82 762.327 1907.79 741.685 1907.81 741.222 1907.97 740.795 1908.27 740.404 1908.56 740.014 1909.08 739.642 1909.82 739.296 1910.55 738.95 1911.49 738.62 1912.64 738.319 1913.79 738.018 1915.23 737.714 1916.96 737.426 1918.74 737.128 1920.21 736.924 1921.38 736.841 1922.54 736.758 1923.44 736.773 1924.07 736.899 1924.7 737.025 1925.14 737.242 1925.4 737.55 1925.66 737.859 1925.78 738.253 1925.76 738.732 1925.63 741.385 1925.5 744.038 1925.37 746.692 1927.44 743.993 1929.35 741.684 1931.15 739.821 1932.96 737.949 1934.64 736.384 1936.24 735.17 1937.85 733.952 1939.43 732.988 1941 732.315 1942.57 731.643 1944.13 731.133 1945.67 730.819ZM1602.74 729.925C1605.78 730.557 1608.53 731.423 1611 732.466 1613.47 733.51 1615.68 734.754 1617.65 736.153 1619.63 737.548 1621.33 739.104 1622.8 740.789 1624.26 742.468 1625.5 744.28 1626.54 746.203 1628.66 744.508 1630.75 743.1 1632.82 741.986 1634.89 740.873 1636.94 740.033 1638.99 739.462 1641.03 738.891 1643.09 738.559 1645.16 738.45 1647.24 738.342 1649.37 738.467 1651.55 738.795 1656.53 739.544 1660.76 740.839 1664.26 742.64 1667.74 744.433 1670.57 746.6 1672.78 749.128 1674.98 751.645 1676.59 754.469 1677.62 757.601 1678.65 760.725 1679.22 763.977 1679.36 767.361 1679.89 779.908 1680.41 792.454 1680.93 805.001 1680.95 805.441 1680.8 805.82 1680.48 806.138 1680.16 806.456 1679.62 806.712 1678.86 806.906 1678.1 807.101 1677.06 807.229 1675.75 807.295 1674.43 807.362 1672.76 807.355 1670.72 807.285 1668.63 807.213 1666.92 807.088 1665.6 806.928 1664.27 806.768 1663.21 806.553 1662.4 806.297 1661.59 806.041 1661.03 805.733 1660.71 805.382 1660.39 805.03 1660.22 804.626 1660.2 804.173 1659.64 792.181 1659.08 780.189 1658.52 768.196 1658.42 766.156 1658.1 764.271 1657.55 762.542 1656.99 760.81 1656.21 759.28 1655.17 757.962 1654.13 756.64 1652.87 755.545 1651.36 754.698 1649.85 753.85 1648.07 753.274 1646 753.002 1643.49 752.671 1641.01 753.127 1638.54 754.412 1636.06 755.698 1633.41 757.73 1630.58 760.51 1631.3 774.619 1632.03 788.727 1632.75 802.836 1632.77 803.312 1632.63 803.72 1632.32 804.06 1632.01 804.399 1631.46 804.669 1630.68 804.868 1629.89 805.067 1628.85 805.192 1627.54 805.248 1626.23 805.304 1624.59 805.276 1622.61 805.178 1620.59 805.078 1618.91 804.922 1617.59 804.732 1616.26 804.542 1615.2 804.294 1614.39 804.006 1613.59 803.718 1613.01 803.373 1612.66 802.984 1612.31 802.595 1612.13 802.15 1612.1 801.654 1611.41 788.544 1610.72 775.433 1610.03 762.322 1609.91 760.092 1609.57 758.023 1609 756.118 1608.43 754.208 1607.66 752.512 1606.65 751.042 1605.63 749.569 1604.38 748.325 1602.84 747.344 1601.31 746.361 1599.56 745.667 1597.57 745.311 1595.04 744.858 1592.57 745.275 1590.14 746.607 1587.7 747.942 1585.13 750.12 1582.4 753.113 1583.21 768.698 1584.03 784.284 1584.84 799.87 1584.87 800.395 1584.73 800.845 1584.42 801.216 1584.11 801.588 1583.57 801.882 1582.79 802.094 1582.02 802.306 1580.97 802.435 1579.67 802.485 1578.37 802.534 1576.7 802.487 1574.68 802.358 1572.66 802.229 1570.99 802.04 1569.68 801.819 1568.36 801.598 1567.3 801.313 1566.5 800.987 1565.69 800.661 1565.12 800.272 1564.77 799.837 1564.42 799.401 1564.23 798.905 1564.2 798.354 1562.98 773.775 1561.75 749.196 1560.52 724.617 1560.49 724.066 1560.6 723.617 1560.86 723.274 1561.11 722.932 1561.58 722.71 1562.28 722.615 1562.97 722.521 1563.87 722.549 1564.98 722.691 1566.09 722.833 1567.49 723.127 1569.19 723.541 1570.94 723.968 1572.39 724.4 1573.55 724.807 1574.71 725.214 1575.6 725.634 1576.25 726.046 1576.89 726.457 1577.36 726.9 1577.65 727.359 1577.95 727.819 1578.11 728.315 1578.13 728.845 1578.28 731.57 1578.42 734.296 1578.56 737.021 1582.39 733.677 1586.28 731.414 1590.21 730.244 1594.15 729.074 1598.32 729.004 1602.74 729.925ZM2120.42 652.316C2122.31 651.429 2123.87 650.764 2125.11 650.362 2126.36 649.958 2127.33 649.795 2128.04 649.877 2128.75 649.959 2129.25 650.245 2129.56 650.721 2129.86 651.198 2130.01 651.831 2130 652.613 2129.95 660.395 2129.9 668.178 2129.85 675.96 2134.85 673.96 2139.78 671.826 2144.74 669.764 2145.25 669.552 2145.69 669.566 2146.08 669.807 2146.47 670.048 2146.78 670.594 2147.04 671.425 2147.3 672.258 2147.49 673.47 2147.62 675.056 2147.75 676.643 2147.82 678.626 2147.82 681.004 2147.83 685.513 2147.59 688.831 2147.06 690.941 2146.53 693.046 2145.8 694.285 2144.82 694.625 2139.78 696.369 2134.77 698.201 2129.7 699.893 2129.6 716.278 2129.5 732.664 2129.39 749.049 2129.36 754.759 2129.91 758.941 2131.15 761.571 2132.39 764.216 2134.52 765.297 2137.66 764.784 2138.72 764.609 2139.67 764.295 2140.53 763.878 2141.38 763.462 2142.13 762.99 2142.8 762.52 2143.47 762.05 2144.01 761.611 2144.47 761.254 2144.93 760.896 2145.33 760.672 2145.7 760.607 2146.02 760.552 2146.32 760.643 2146.62 760.872 2146.91 761.102 2147.13 761.641 2147.3 762.471 2147.46 763.302 2147.6 764.446 2147.74 765.898 2147.88 767.352 2147.94 769.227 2147.95 771.523 2147.95 775.13 2147.82 777.919 2147.52 779.881 2147.22 781.841 2146.85 783.245 2146.36 784.073 2145.87 784.9 2145.18 785.691 2144.23 786.395 2143.28 787.099 2142.2 787.766 2140.93 788.334 2139.66 788.902 2138.3 789.404 2136.82 789.788 2135.34 790.173 2133.86 790.454 2132.35 790.604 2128.32 791.006 2124.84 790.6 2121.89 789.471 2118.95 788.346 2116.56 786.356 2114.63 783.621 2112.71 780.907 2111.39 777.348 2110.52 773.003 2109.65 768.677 2109.29 763.469 2109.38 757.375 2109.62 740.393 2109.87 723.411 2110.11 706.43 2107.31 707.318 2104.53 708.254 2101.71 709.128 2100.71 709.438 2099.98 708.831 2099.48 707.305 2098.97 705.782 2098.77 703.032 2098.85 699.065 2098.89 696.973 2098.98 695.182 2099.14 693.693 2099.31 692.202 2099.51 690.992 2099.79 690.066 2100.08 689.139 2100.4 688.415 2100.81 687.91 2101.21 687.405 2101.66 687.043 2102.18 686.849 2104.95 685.82 2107.68 684.734 2110.43 683.689 2110.54 676.294 2110.65 668.899 2110.75 661.505 2110.76 660.762 2110.91 660.027 2111.2 659.305 2111.5 658.583 2112.01 657.839 2112.76 657.09 2113.52 656.339 2114.51 655.564 2115.77 654.794 2117.04 654.023 2118.58 653.183 2120.42 652.316ZM1439.13 642.631C1441.48 643.806 1443.82 645.246 1446.19 646.907 1448.56 648.573 1450.78 650.345 1452.87 652.186 1454.95 654.021 1456.78 655.854 1458.42 657.65 1460.04 659.44 1461.11 660.807 1461.65 661.744 1462.19 662.679 1462.56 663.435 1462.75 664.007 1462.95 664.579 1463.12 665.298 1463.27 666.162 1463.42 667.026 1463.53 668.083 1463.61 669.334 1463.7 670.584 1463.76 672.121 1463.8 673.945 1463.85 675.98 1463.86 677.683 1463.81 679.055 1463.77 680.427 1463.67 681.535 1463.51 682.376 1463.34 683.217 1463.1 683.787 1462.77 684.075 1462.44 684.364 1461.99 684.399 1461.41 684.181 1460.84 683.964 1459.93 683.102 1458.65 681.631 1457.36 680.155 1455.83 678.427 1453.98 676.518 1452.12 674.601 1450.02 672.609 1447.61 670.629 1445.2 668.652 1442.62 666.995 1439.79 665.772 1437.57 664.815 1435.65 664.345 1434.01 664.413 1432.38 664.482 1431.03 665.005 1429.94 665.929 1428.84 666.855 1428.07 668.235 1427.54 670.008 1427 671.787 1426.77 673.806 1426.79 676.051 1426.82 679.379 1427.42 682.513 1428.69 685.397 1429.95 688.268 1431.54 691.061 1433.64 693.638 1435.75 696.21 1438.04 698.824 1440.71 701.284 1443.36 703.732 1445.98 706.363 1448.78 708.952 1451.57 711.536 1454.21 714.405 1456.94 717.339 1459.65 720.255 1461.97 723.565 1464.15 727.097 1466.33 730.607 1468.02 734.554 1469.43 738.851 1470.84 743.124 1471.58 747.958 1471.72 753.347 1471.91 760.393 1471.09 766.422 1469.15 771.432 1467.2 776.491 1464.61 780.673 1461.18 783.862 1457.71 787.084 1453.73 789.489 1449.08 790.893 1444.41 792.301 1439.43 792.818 1434.1 792.307 1430.5 791.961 1427.15 791.18 1424.05 790.023 1420.94 788.864 1418.23 787.475 1415.86 785.998 1413.48 784.518 1411.54 782.929 1409.94 781.377 1408.34 779.821 1407.24 778.421 1406.53 777.275 1405.82 776.126 1405.35 774.512 1405.05 772.463 1404.82 770.924 1404.69 768.899 1404.64 766.39 1404.63 765.5 1404.62 764.61 1404.61 763.721 1404.61 763.72 1404.61 763.72 1404.61 763.719 1404.62 762.552 1404.63 761.386 1404.65 760.219 1404.67 759.157 1404.71 758.2 1404.77 757.349 1404.88 755.647 1405.04 754.285 1405.28 753.268 1405.53 752.252 1405.83 751.551 1406.23 751.188 1406.63 750.826 1407.09 750.693 1407.62 750.798 1408.36 750.945 1409.38 751.854 1410.75 753.434 1412.13 755.009 1413.81 756.864 1415.97 758.818 1418.12 760.764 1420.62 762.727 1423.61 764.484 1426.59 766.236 1430 767.477 1433.89 768.086 1436.45 768.487 1438.74 768.414 1440.76 767.893 1442.78 767.373 1444.45 766.415 1445.86 765.119 1447.27 763.828 1448.27 762.08 1449 759.946 1449.72 757.821 1450.03 755.365 1449.98 752.589 1449.92 749.374 1449.26 746.463 1447.92 743.886 1446.57 741.299 1444.95 738.8 1442.86 736.519 1440.76 734.227 1438.49 731.85 1435.86 729.588 1433.22 727.317 1430.63 724.778 1427.86 722.207 1425.07 719.623 1422.5 716.638 1419.88 713.501 1417.26 710.351 1415.08 706.651 1413.03 702.616 1410.96 698.553 1409.44 693.882 1408.16 688.731 1406.88 683.552 1406.3 677.625 1406.29 671.008 1406.29 663.41 1407.13 657.122 1408.9 652.22 1410.66 647.363 1412.94 643.762 1415.9 641.565 1418.84 639.39 1422.31 638.43 1426.32 638.721 1430.33 639.012 1434.58 640.352 1439.13 642.631ZM1803.64 724.682C1808.46 724.48 1811.72 724.882 1813.42 725.968 1815.12 727.052 1815.94 729.106 1815.89 732.136 1815.84 735.29 1814.92 737.517 1813.13 738.808 1811.35 740.095 1808.06 740.855 1803.28 741.023 1798.44 741.194 1795.18 740.693 1793.51 739.581 1791.83 738.468 1791 736.409 1791.02 733.41 1791.03 730.286 1791.92 728.1 1793.68 726.843 1795.44 725.582 1798.76 724.886 1803.64 724.682ZM1709.29 719.649C1711.41 719.871 1713.16 720.107 1714.53 720.366 1715.91 720.625 1717.02 720.906 1717.85 721.213 1718.69 721.519 1719.28 721.854 1719.63 722.22 1719.99 722.586 1720.17 722.978 1720.18 723.398 1720.45 733.743 1720.73 744.088 1721 754.433 1722.89 753.124 1724.78 752.028 1726.68 751.137 1728.58 750.245 1730.48 749.531 1732.39 748.987 1734.31 748.443 1736.28 748.077 1738.32 747.88 1740.36 747.684 1742.51 747.635 1744.78 747.722 1750.4 747.937 1755.17 748.88 1759.11 750.587 1763.04 752.288 1766.24 754.512 1768.72 757.287 1771.19 760.054 1773 763.273 1774.13 766.949 1775.27 770.622 1775.83 774.49 1775.84 778.552 1775.85 783.434 1775.13 787.823 1773.69 791.72 1772.26 795.615 1770.19 798.932 1767.49 801.674 1764.8 804.412 1761.48 806.511 1757.55 807.967 1753.62 809.421 1749.15 810.126 1744.14 810.075 1741.65 810.05 1739.34 809.844 1737.18 809.464 1735.02 809.084 1732.96 808.479 1730.98 807.656 1729 806.833 1727.05 805.791 1725.11 804.54 1723.17 803.286 1721.19 801.767 1719.15 799.993 1719.2 802.034 1719.26 804.074 1719.32 806.115 1719.33 806.578 1719.19 806.964 1718.89 807.273 1718.6 807.583 1718.11 807.835 1717.43 808.032 1716.75 808.229 1715.83 808.356 1714.67 808.417 1713.52 808.477 1712.11 808.487 1710.46 808.451 1708.75 808.414 1707.33 808.335 1706.2 808.224 1705.07 808.112 1704.15 807.938 1703.46 807.707 1702.76 807.477 1702.27 807.195 1701.98 806.867 1701.7 806.539 1701.54 806.139 1701.53 805.668 1700.55 777.508 1699.57 749.348 1698.59 721.189 1698.58 720.76 1698.74 720.395 1699.07 720.094 1699.4 719.792 1699.97 719.573 1700.79 719.435 1701.61 719.297 1702.7 719.244 1704.07 719.271 1705.43 719.298 1707.18 719.427 1709.29 719.649ZM2085.82 647.446C2087.84 646.464 2089.75 645.748 2091.55 645.316 2093.34 644.886 2094.74 644.687 2095.76 644.712 2096.77 644.737 2097.45 644.897 2097.81 645.184 2098.16 645.472 2098.44 646.01 2098.65 646.795 2098.87 647.58 2099.01 648.651 2099.09 650.005 2099.16 651.36 2099.18 653.082 2099.14 655.171 2099.1 657.26 2099.02 658.958 2098.89 660.265 2098.76 661.571 2098.59 662.613 2098.37 663.387 2098.15 664.161 2097.91 664.733 2097.65 665.096 2097.38 665.459 2097.1 665.712 2096.79 665.846 2096.42 666.002 2096.03 666.052 2095.59 665.995 2095.16 665.938 2094.62 665.905 2093.98 665.904 2093.34 665.902 2092.58 665.967 2091.71 666.102 2090.83 666.238 2089.8 666.573 2088.6 667.086 2087.19 667.689 2085.98 668.515 2084.94 669.532 2083.91 670.547 2083.05 671.845 2082.33 673.399 2081.62 674.95 2081.09 676.806 2080.72 678.958 2080.35 681.106 2080.13 683.655 2080.06 686.605 2079.98 689.417 2079.91 692.23 2079.84 695.042 2084.13 693.55 2088.38 691.953 2092.65 690.41 2093.12 690.24 2093.55 690.261 2093.93 690.468 2094.32 690.675 2094.62 691.15 2094.87 691.873 2095.12 692.597 2095.29 693.654 2095.39 695.036 2095.5 696.419 2095.52 698.148 2095.48 700.221 2095.4 704.154 2095.1 707.049 2094.53 708.891 2093.96 710.729 2093.19 711.813 2092.19 712.115 2087.9 713.413 2083.61 714.777 2079.3 716.033 2078.66 740.796 2078.02 765.559 2077.38 790.323 2077.36 791.009 2077.19 791.628 2076.85 792.171 2076.5 792.714 2075.96 793.203 2075.19 793.61 2074.42 794.017 2073.37 794.382 2072.01 794.671 2070.65 794.959 2069 795.205 2067.05 795.376 2065.1 795.548 2063.47 795.616 2062.15 795.569 2060.83 795.523 2059.78 795.368 2059.01 795.115 2058.24 794.862 2057.71 794.499 2057.43 794.039 2057.14 793.58 2057.01 793.022 2057.03 792.371 2057.8 768.849 2058.56 745.327 2059.33 721.805 2056.33 722.624 2053.35 723.484 2050.36 724.28 2049.34 724.55 2048.62 724.012 2048.16 722.666 2047.7 721.323 2047.54 718.91 2047.67 715.434 2047.73 713.601 2047.85 712.033 2048.03 710.728 2048.22 709.423 2048.43 708.367 2048.7 707.565 2048.97 706.763 2049.3 706.134 2049.71 705.693 2050.13 705.251 2050.59 704.937 2051.12 704.768 2054.08 703.83 2057.02 702.832 2059.97 701.867 2060.05 699.423 2060.13 696.98 2060.21 694.536 2060.4 688.607 2061.05 683.228 2062.14 678.384 2063.25 673.523 2064.83 669.161 2066.94 665.299 2069.06 661.409 2071.69 657.976 2074.83 654.994 2077.98 652 2081.63 649.482 2085.82 647.446Z" stroke="#000000" stroke-width="3" stroke-linejoin="round" stroke-miterlimit="10" fill="#FFFFFF" fill-rule="evenodd"/><text fill="#000000" fill-opacity="0" font-family="Arial,Arial_MSFontService,sans-serif" font-size="192.502" x="1404.61" y="807.109">Symbicroft</text><path d="M1791.61 148.538C1787.32 151.173 1533.67 298.752 1590.41 364.636 1647.16 430.519 2096.85 487.618 2132.11 543.839 2167.36 600.059 1918.87 695.81 1801.93 701.959 1685 708.108 1383.19 661.55 1430.48 580.733 1477.78 499.916 2070.2 219.692 2085.68 217.057 2101.15 214.422 1574.94 491.132 1523.35 564.921 1471.76 638.71 1682.42 658.915 1776.14 659.793 1869.86 660.672 2112.33 622.02 2085.68 570.192 2059.02 518.364 1663.5 418.221 1616.21 348.824 1568.92 279.427 1795.91 145.903 1791.61 148.538Z" stroke="#000000" stroke-width="4.58333" stroke-miterlimit="8" fill="#FFFFFF" fill-rule="evenodd"/></g></svg>